HIERARCHY
ROOT Hips
{
	OFFSET -0.001795 -0.223333 0.028219
	CHANNELS 6 Xposition Yposition Zposition Zrotation Yrotation Xrotation 
	JOINT LeftUpLeg
	{
		OFFSET 0.069520 -0.091406 -0.006815
		CHANNELS 3 Zrotation Yrotation Xrotation
		JOINT LeftLeg
		{
			OFFSET 0.034277 -0.375199 -0.004496
			CHANNELS 3 Zrotation Yrotation Xrotation
			JOINT LeftFoot
			{
				OFFSET -0.013596 -0.397961 -0.043693
				CHANNELS 3 Zrotation Yrotation Xrotation
				JOINT LeftToe
				{
					OFFSET 0.026358 -0.055791 0.119288
					CHANNELS 3 Zrotation Yrotation Xrotation
					End Site
					{
						OFFSET 0.000000 0.000000 0.000000
					}
				}
			}
		}
	}
	JOINT RightUpLeg
	{
		OFFSET -0.067670 -0.090522 -0.004320
		CHANNELS 3 Zrotation Yrotation Xrotation
		JOINT RightLeg
		{
			OFFSET -0.038290 -0.382569 -0.008850
			CHANNELS 3 Zrotation Yrotation Xrotation
			JOINT RightFoot
			{
				OFFSET 0.015774 -0.398415 -0.042312
				CHANNELS 3 Zrotation Yrotation Xrotation
				JOINT RightToe
				{
					OFFSET -0.025372 -0.048144 0.123348
					CHANNELS 3 Zrotation Yrotation Xrotation
					End Site
					{
						OFFSET 0.000000 0.000000 0.000000
					}
				}
			}
		}
	}
	JOINT Spine
	{
		OFFSET -0.002533 0.108963 -0.026696
		CHANNELS 3 Zrotation Yrotation Xrotation
		JOINT Spine1
		{
			OFFSET 0.005487 0.135180 0.001092
			CHANNELS 3 Zrotation Yrotation Xrotation
			JOINT Spine2
			{
				OFFSET 0.001457 0.052922 0.025425
				CHANNELS 3 Zrotation Yrotation Xrotation
				JOINT Neck
				{
					OFFSET -0.002778 0.213870 -0.042857
					CHANNELS 3 Zrotation Yrotation Xrotation
					JOINT Head
					{
						OFFSET 0.005152 0.064970 0.051349
						CHANNELS 3 Zrotation Yrotation Xrotation
						End Site
						{
							OFFSET 0.000000 0.000000 0.000000
						}
					}
				}
				JOINT LeftShoulder
				{
					OFFSET 0.078845 0.121749 -0.034090
					CHANNELS 3 Zrotation Yrotation Xrotation
					JOINT LeftArm
					{
						OFFSET 0.090977 0.030469 -0.008868
						CHANNELS 3 Zrotation Yrotation Xrotation
						JOINT LeftForeArm
						{
							OFFSET 0.259612 -0.012772 -0.027456
							CHANNELS 3 Zrotation Yrotation Xrotation
							JOINT LeftHand
							{
								OFFSET 0.249234 0.008986 -0.001171
								CHANNELS 3 Zrotation Yrotation Xrotation
								End Site
								{
									OFFSET 0.000000 0.000000 0.000000
								}
							}
						}
					}
				}
				JOINT RightShoulder
				{
					OFFSET -0.081759 0.118833 -0.038615
					CHANNELS 3 Zrotation Yrotation Xrotation
					JOINT RightArm
					{
						OFFSET -0.096012 0.032551 -0.009143
						CHANNELS 3 Zrotation Yrotation Xrotation
						JOINT RightForeArm
						{
							OFFSET -0.253742 -0.013329 -0.021401
							CHANNELS 3 Zrotation Yrotation Xrotation
							JOINT RightHand
							{
								OFFSET -0.255298 0.007772 -0.005559
								CHANNELS 3 Zrotation Yrotation Xrotation
								End Site
								{
									OFFSET 0.000000 0.000000 0.000000
								}
							}
						}
					}
				}
			}
		}
	}
}
MOTION
Frames: 8
Frame Time: 0.050000
0.000000 0.937285 0.000000 6.391245 2.887016 31.018685 0.634743 -1.886369 -20.538892 1.243286 0.083774 -4.332356 0.497503 6.498108 13.569595 0.000000 0.000000 0.000000 -7.987350 1.162627 -40.872768 -1.349708 0.445629 6.535651 5.734519 11.296581 5.842568 0.000000 0.000000 0.000000 9.737100 -4.939065 26.270176 5.183786 -2.528256 3.303596 -2.194037 0.397392 8.144813 10.860389 -4.471031 -18.975448 0.000000 0.000000 0.000000 -24.884412 -26.284252 14.887002 -33.960935 -19.972705 0.680227 19.033011 -52.797366 -6.632943 0.000000 0.000000 0.000000 15.623375 23.787954 12.559257 25.146236 28.792257 1.712238 -46.068184 45.672898 -16.125862 0.000000 0.000000 0.000000 
0.000762 0.938542 -0.000109 6.650205 2.188144 30.487703 1.337886 -1.756157 -19.906613 0.118421 0.172167 -5.201688 0.404469 6.132775 13.295454 0.000000 0.000000 0.000000 -7.474271 1.395340 -40.729795 -1.771940 0.533715 6.894603 6.336477 12.773699 5.751143 0.000000 0.000000 0.000000 8.789439 -4.651934 27.383395 5.503482 -2.798072 4.515271 -1.783009 -0.918933 6.910795 9.641838 -3.982518 -18.715895 0.000000 0.000000 0.000000 -24.999989 -20.592355 11.539987 -36.467884 -16.912507 0.032582 13.475467 -55.797996 -4.003397 0.000000 0.000000 0.000000 15.935368 24.688658 12.624917 23.097282 28.925990 1.477440 -47.146985 44.334731 -16.233445 0.000000 0.000000 0.000000 
0.001454 0.937566 -0.000799 7.547775 3.626261 30.454801 0.731740 -1.877197 -20.193243 0.244091 0.167826 -5.294516 -1.888062 1.978998 11.776565 0.000000 0.000000 0.000000 -8.306435 0.880209 -40.710490 -1.963724 0.530000 6.326485 5.646918 11.222871 5.669314 0.000000 0.000000 0.000000 9.237845 -4.980221 27.589722 4.707016 -2.505100 4.933426 -1.023317 -1.011886 5.543010 9.110014 -3.760261 -17.674976 0.000000 0.000000 0.000000 -26.558857 -18.403641 9.993323 -36.983328 -15.866227 -0.063066 3.976513 -56.198378 0.927647 0.000000 0.000000 0.000000 18.412471 24.566333 13.178615 18.723139 29.341779 0.723430 -39.869538 40.038320 -11.599811 0.000000 0.000000 0.000000 
0.001719 0.939535 -0.001180 8.268339 4.040219 30.773159 0.157818 -1.952487 -20.291282 1.123422 0.131809 -5.311054 -2.699121 1.064491 12.627228 0.000000 0.000000 0.000000 -9.340095 0.442152 -41.422946 -0.644503 0.357508 7.527003 6.525182 12.815603 6.411156 0.000000 0.000000 0.000000 9.448564 -5.214611 28.248337 4.768626 -2.544916 4.811245 -1.374747 -0.561997 5.640202 9.031547 -3.415456 -19.117726 0.000000 0.000000 0.000000 -27.570057 -17.535751 9.142576 -37.023532 -13.030615 -0.715112 0.824367 -54.089693 2.295838 0.000000 0.000000 0.000000 16.581485 26.273178 14.163417 17.300110 30.222288 0.475394 -39.933910 36.336103 -10.252056 0.000000 0.000000 0.000000 
0.001880 0.939378 -0.001530 9.333492 5.956563 30.715596 -0.924166 -2.047803 -19.875194 1.548720 0.130008 -5.654651 -3.442068 -0.248141 11.841574 0.000000 0.000000 0.000000 -9.623141 -0.001432 -40.674707 -1.361972 0.435144 6.712408 6.132570 11.961186 6.423476 0.000000 0.000000 0.000000 9.947715 -5.638337 28.522436 4.381360 -2.304110 3.672257 -1.262068 -0.722152 6.063505 8.682559 -3.291347 -18.336158 0.000000 0.000000 0.000000 -29.014953 -16.936445 8.519335 -36.565888 -10.650743 -1.254830 -3.987567 -54.232246 4.609901 0.000000 0.000000 0.000000 17.603222 28.005377 15.729042 12.792452 30.781774 -0.411298 -34.370155 30.381024 -6.881833 0.000000 0.000000 0.000000 
0.001724 0.939622 -0.001732 10.108231 7.385765 30.768967 -1.428546 -2.074791 -19.491968 1.438359 0.137770 -5.758473 -4.086575 -0.659646 12.748157 0.000000 0.000000 0.000000 -10.218462 -0.485976 -40.827766 -0.828976 0.356417 7.400840 5.466622 10.655316 6.144465 0.000000 0.000000 0.000000 9.942485 -5.709800 28.196379 4.051021 -2.146984 3.302682 -0.948029 0.866303 6.465883 9.087893 -3.085080 -19.650135 0.000000 0.000000 0.000000 -28.952465 -17.240228 7.612263 -37.871881 -7.935076 -1.717864 -10.469499 -53.360099 7.380403 0.000000 0.000000 0.000000 14.998553 27.989520 15.742977 12.981771 31.496294 -0.347664 -33.007384 25.259427 -5.151331 0.000000 0.000000 0.000000 
0.001573 0.939895 -0.001999 10.868349 9.370832 30.572548 -1.737089 -2.109197 -19.236769 1.309814 0.134365 -5.613225 -4.296377 -0.841940 12.483940 0.000000 0.000000 0.000000 -10.913241 -1.066426 -40.226108 -0.543786 0.296101 7.802448 4.228841 8.441889 5.146946 0.000000 0.000000 0.000000 10.029974 -5.847893 27.850023 4.110292 -2.148316 2.609814 -0.933262 1.314499 6.559042 9.191725 -3.121445 -18.984496 0.000000 0.000000 0.000000 -29.728981 -16.299588 6.226839 -38.704420 -4.697188 -2.423382 -15.808805 -52.459480 9.599751 0.000000 0.000000 0.000000 16.264920 28.076974 16.543218 11.255704 30.558554 -0.731032 -31.473088 22.926338 -4.315582 0.000000 0.000000 0.000000 
0.001321 0.940375 -0.002444 11.325903 11.306247 30.103715 -1.902188 -2.100509 -18.851657 0.936788 0.130955 -5.278511 -4.535200 -1.232311 12.038727 0.000000 0.000000 0.000000 -11.174420 -1.432570 -39.437578 -0.227890 0.228755 8.588538 2.860582 5.995484 3.726185 0.000000 0.000000 0.000000 9.888006 -5.766230 26.997876 4.316598 -2.341775 3.107043 -0.919964 2.350770 6.149466 9.044155 -2.804954 -19.196275 0.000000 0.000000 0.000000 -30.224630 -16.376071 5.242934 -39.256600 -2.322889 -2.804709 -19.396168 -51.862615 10.871806 0.000000 0.000000 0.000000 17.032008 27.427919 16.917754 10.841673 30.134227 -0.818088 -30.270852 21.351892 -3.741009 0.000000 0.000000 0.000000 
